# xmcd
#
# Track frame offsets: 
#        150
#        14291
#        25783
#        36016
#        48921
#        59781
#        70453
#        83116
#        92187
#        104854
#        115239
#        126761
#        140402
#        152115
#        163440
#        174207
#        187823
#        198277
#        209465
#        217750
#
# Disc length: 3164 seconds
#
# Revision: 1
# Processed by: cddbd v1.5.2PL0 Copyright (c) Steve Scherf et al.
# Submitted via: ExactAudioCopyFreeDBPlugin 1.0
#
DISCID=1e0c5a14
DTITLE=Earl Hooker, Screamin' Jay Hawkins - ABC Of The Blues - Vol. 14
DTITLE=Earl Hooker, Jay Hawkins
DYEAR=2010
DGENRE=Blues
TTITLE0=Earl Hooker - Sweet Black Angel
TTITLE1=Earl Hooker - Earl's Boogie Woogie
TTITLE2=Earl Hooker - Goin' Down The Line
TTITLE3=Earl Hooker - Guitar Rag
TTITLE4=Screamin' Jay Hawkins - I Put A Spell On You
TTITLE5=Screamin' Jay Hawkins - Yellow Coat
TTITLE6=Screamin' Jay Hawkins - If You Are But A Dream
TTITLE7=Screamin' Jay Hawkins - You Made Me Love
TTITLE8=Screamin' Jay Hawkins - Orange Colored Sky
TTITLE9=Screamin' Jay Hawkins - Hong Kong
TTITLE10=Screamin' Jay Hawkins - Baptize Me In Wine
TTITLE11=Screamin' Jay Hawkins - Not Anymore
TTITLE12=Screamin' Jay Hawkins - I Hear Voices
TTITLE13=Screamin' Jay Hawkins - The Whammy
TTITLE14=Screamin' Jay Hawkins - Little Demon
TTITLE15=Screamin' Jay Hawkins - Poor Folks
TTITLE16=Screamin' Jay Hawkins - Your Kind Of Love
TTITLE17=Screamin' Jay Hawkins - Ashes
TTITLE18=Screamin' Jay Hawkins - Swing Low, Sweet Chariot
TTITLE19=Screamin' Jay Hawkins - Ol' Man River
EXTD=
EXTT0=
EXTT1=
EXTT2=
EXTT3=
EXTT4=
EXTT5=
EXTT6=
EXTT7=
EXTT8=
EXTT9=
EXTT10=
EXTT11=
EXTT12=
EXTT13=
EXTT14=
EXTT15=
EXTT16=
EXTT17=
EXTT18=
EXTT19=
PLAYORDER=
